# xmcd
#
# Track frame offsets: 
#        150
#        19278
#        42005
#        68848
#        85055
#        107909
#        129405
#        161738
#        197560
#
# Disc length: 2984 seconds
#
# Revision: 0
# Processed by: cddbd v1.5.2PL0 Copyright (c) Steve Scherf et al.
# Submitted via: ExactAudioCopy v0.95b4
#
DISCID=710ba609
DTITLE=Robert Cray - Springfield, MA
DYEAR=1992
DGENRE=
TTITLE0=I Guess I Showed Her
TTITLE1=Smokin' Gun
TTITLE2=The Last Time (I Get Burned Like This)
TTITLE3=More Than I Can Stand
TTITLE4=Don't You Even Care?
TTITLE5=Don't Be Afraid Of The Dark
TTITLE6=I Can't Go Home 
TTITLE7=Playin' In The Dirt
TTITLE8=Right Next Door
EXTD=With The Memphis Horns 
EXTT0=
EXTT1=
EXTT2=
EXTT3=
EXTT4=
EXTT5=
EXTT6=
EXTT7=
EXTT8=
PLAYORDER=
